<svg width="21" height="28" viewBox="0 0 21 28" fill="none" xmlns="http://www.w3.org/2000/svg">
<path d="M8.35547 11.5023H12.1055V14.5023H8.35547V11.5023Z" fill="black"/>
<path d="M20.1352 11.032L19.0945 12.0727C18.6492 12.5227 17.9227 12.5133 17.4867 12.0539L12.1055 6.40547V8.50235H8.35547V6.40547L2.97891 12.0492C2.54297 12.5039 1.81641 12.5133 1.3711 12.068L0.330471 11.0273C-0.110154 10.5914 -0.110154 9.87891 0.330471 9.43828L9.43828 0.330469C9.87422 -0.110156 10.5867 -0.110156 11.0273 0.330469L20.1352 9.44297C20.5758 9.8789 20.5758 10.5914 20.1352 11.032Z" fill="black"/>
<path d="M8.35547 17.5023H12.1055V20.5023H8.35547V17.5023Z" fill="black"/>
<path d="M9.48047 27.0023C8.85703 27.0023 8.35547 26.5008 8.35547 25.8773V23.5023H12.1055V25.8773C12.1055 26.5008 11.6039 27.0023 10.9805 27.0023H9.48047Z" fill="black"/>
</svg>
